<svg xmlns="http://www.w3.org/2000/svg" viewBox="0 0 600 400" width="600" height="400">
  <style>
    text { font-family: -apple-system, BlinkMacSystemFont, 'Segoe UI', Helvetica, Arial, sans-serif; }
    .slice { transition: opacity 0.2s; }
    .slice:hover { opacity: 0.8; }
  </style>
  <rect width="100%" height="100%" fill="#ffffff" rx="8"/>
  <text x="300" y="25" text-anchor="middle" font-size="16" font-weight="bold" fill="#24292f">Language Breakdown</text>
  
  
    <path d="M 300 180 L 420 180 A 120 120 0 1 1 409.871148684069 131.74722094176119 Z" 
          fill="#238636" stroke="#ffffff" stroke-width="2" class="slice">
      <title>JavaScript: 5,333 lines (93.1%)</title>
    </path>
    <path d="M 300 180 L 409.871148684069 131.74722094176119 A 120 120 0 0 1 419.6739053209316 171.1593899963466 Z" 
          fill="#0969da" stroke="#ffffff" stroke-width="2" class="slice">
      <title>Markdown: 309 lines (5.4%)</title>
    </path>
    <path d="M 300 180 L 419.6739053209316 171.1593899963466 A 120 120 0 0 1 420 179.99999999999997 Z" 
          fill="#8250df" stroke="#ffffff" stroke-width="2" class="slice">
      <title>JSON: 67 lines (1.2%)</title>
    </path>
  
    <rect x="20" y="320" width="12" height="12" fill="#238636" rx="2"/>
    <text x="38" y="330" font-size="11" fill="#24292f">JavaScript (93.1%)</text>
    <rect x="320" y="320" width="12" height="12" fill="#0969da" rx="2"/>
    <text x="338" y="330" font-size="11" fill="#24292f">Markdown (5.4%)</text>
    <rect x="20" y="340" width="12" height="12" fill="#8250df" rx="2"/>
    <text x="38" y="350" font-size="11" fill="#24292f">JSON (1.2%)</text>
</svg>