<svg xmlns="http://www.w3.org/2000/svg" xmlns:xlink="http://www.w3.org/1999/xlink" viewBox="0 0 700 50">
  <defs>
    <filter id="navShadow" x="-2%" y="-10%" width="104%" height="130%">
      <feDropShadow dx="0" dy="2" stdDeviation="4" flood-opacity="0.1"/>
    </filter>
    
    <linearGradient id="navHover" x1="0%" y1="0%" x2="0%" y2="100%">
      <stop offset="0%" style="stop-color:#f1f5f9"/>
      <stop offset="100%" style="stop-color:#e2e8f0"/>
    </linearGradient>
    
    <!-- Material Icons -->
    <symbol id="nav-home" viewBox="0 0 24 24">
      <path fill="currentColor" d="M10 20v-6h4v6h5v-8h3L12 3 2 12h3v8z"/>
    </symbol>
    <symbol id="nav-features" viewBox="0 0 24 24">
      <path fill="currentColor" d="M12 2l-5.5 9h11z M17.5 13h-11l5.5 9z"/>
    </symbol>
    <symbol id="nav-install" viewBox="0 0 24 24">
      <path fill="currentColor" d="M19 9h-4V3H9v6H5l7 7 7-7zM5 18v2h14v-2H5z"/>
    </symbol>
    <symbol id="nav-docs" viewBox="0 0 24 24">
      <path fill="currentColor" d="M14 2H6c-1.1 0-1.99.9-1.99 2L4 20c0 1.1.89 2 1.99 2H18c1.1 0 2-.9 2-2V8l-6-6zm2 16H8v-2h8v2zm0-4H8v-2h8v2zm-3-5V3.5L18.5 9H13z"/>
    </symbol>
    <symbol id="nav-api" viewBox="0 0 24 24">
      <path fill="currentColor" d="M9.4 16.6L4.8 12l4.6-4.6L8 6l-6 6 6 6 1.4-1.4zm5.2 0l4.6-4.6-4.6-4.6L16 6l6 6-6 6-1.4-1.4z"/>
    </symbol>
    <symbol id="nav-github" viewBox="0 0 24 24">
      <path fill="currentColor" d="M12 .3a12 12 0 0 0-3.8 23.4c.6.1.8-.3.8-.6v-2c-3.3.7-4-1.6-4-1.6-.6-1.4-1.4-1.8-1.4-1.8-1-.7.1-.7.1-.7 1.2 0 1.9 1.2 1.9 1.2 1 1.8 2.8 1.3 3.5 1 0-.8.4-1.3.7-1.6-2.7-.3-5.5-1.3-5.5-6 0-1.2.5-2.3 1.3-3.1-.2-.4-.6-1.6 0-3.2 0 0 1-.3 3.4 1.2a11.5 11.5 0 0 1 6 0c2.3-1.5 3.3-1.2 3.3-1.2.6 1.6.2 2.8 0 3.2.9.8 1.3 1.9 1.3 3.2 0 4.6-2.8 5.6-5.5 5.9.5.4.9 1 .9 2.2v3.3c0 .3.1.7.8.6A12 12 0 0 0 12 .3"/>
    </symbol>
  </defs>
  
  <style>
    .nav-bg { fill: white; }
    .nav-item { cursor: pointer; transition: all 0.2s ease; }
    .nav-item:hover .nav-item-bg { fill: url(#navHover); }
    .nav-item:hover .nav-icon { color: #6366f1; }
    .nav-item:hover .nav-label { fill: #6366f1; }
    .nav-item-bg { fill: transparent; transition: fill 0.2s ease; }
    .nav-icon { color: #64748b; transition: color 0.2s ease; }
    .nav-label { 
      font-family: system-ui, -apple-system, sans-serif; 
      font-size: 11px; 
      fill: #475569;
      transition: fill 0.2s ease;
    }
    .nav-divider { stroke: #e2e8f0; }
  </style>
  
  <!-- Background -->
  <rect class="nav-bg" width="700" height="50" rx="8" filter="url(#navShadow)"/>
  
  <!-- Nav items -->
  <a xlink:href="#doccc">
    <g class="nav-item">
      <rect class="nav-item-bg" x="10" y="5" width="100" height="40" rx="6"/>
      <use xlink:href="#nav-home" class="nav-icon" x="38" y="8" width="22" height="22"/>
      <text class="nav-label" x="60" y="42" text-anchor="middle">Home</text>
    </g>
  </a>
  
  <line class="nav-divider" x1="115" y1="12" x2="115" y2="38"/>
  
  <a xlink:href="#features">
    <g class="nav-item">
      <rect class="nav-item-bg" x="120" y="5" width="100" height="40" rx="6"/>
      <use xlink:href="#nav-features" class="nav-icon" x="148" y="8" width="22" height="22"/>
      <text class="nav-label" x="170" y="42" text-anchor="middle">Features</text>
    </g>
  </a>
  
  <line class="nav-divider" x1="225" y1="12" x2="225" y2="38"/>
  
  <a xlink:href="#installation">
    <g class="nav-item">
      <rect class="nav-item-bg" x="230" y="5" width="100" height="40" rx="6"/>
      <use xlink:href="#nav-install" class="nav-icon" x="258" y="8" width="22" height="22"/>
      <text class="nav-label" x="280" y="42" text-anchor="middle">Install</text>
    </g>
  </a>
  
  <line class="nav-divider" x1="335" y1="12" x2="335" y2="38"/>
  
  <a xlink:href="#usage">
    <g class="nav-item">
      <rect class="nav-item-bg" x="340" y="5" width="100" height="40" rx="6"/>
      <use xlink:href="#nav-docs" class="nav-icon" x="368" y="8" width="22" height="22"/>
      <text class="nav-label" x="390" y="42" text-anchor="middle">Usage</text>
    </g>
  </a>
  
  <line class="nav-divider" x1="445" y1="12" x2="445" y2="38"/>
  
  <a xlink:href="#api">
    <g class="nav-item">
      <rect class="nav-item-bg" x="450" y="5" width="100" height="40" rx="6"/>
      <use xlink:href="#nav-api" class="nav-icon" x="478" y="8" width="22" height="22"/>
      <text class="nav-label" x="500" y="42" text-anchor="middle">API</text>
    </g>
  </a>
  
  <line class="nav-divider" x1="555" y1="12" x2="555" y2="38"/>
  
  <a xlink:href="https://github.com/NagusameCS/doccc" target="_blank">
    <g class="nav-item">
      <rect class="nav-item-bg" x="560" y="5" width="130" height="40" rx="6"/>
      <use xlink:href="#nav-github" class="nav-icon" x="598" y="8" width="22" height="22"/>
      <text class="nav-label" x="635" y="42" text-anchor="middle">GitHub</text>
    </g>
  </a>
</svg>